<mxfile host="Electron" agent="Mozilla/5.0 (Windows NT 10.0; Win64; x64) AppleWebKit/537.36 (KHTML, like Gecko) draw.io/24.7.8 Chrome/128.0.6613.36 Electron/32.0.1 Safari/537.36" version="24.7.8" pages="3">
  <diagram id="C5RBs43oDa-KdzZeNtuy" name="Diagrama de Classes">
    <mxGraphModel dx="2315" dy="662" grid="1" gridSize="10" guides="1" tooltips="1" connect="1" arrows="1" fold="1" page="1" pageScale="1" pageWidth="827" pageHeight="1169" math="0" shadow="0">
      <root>
        <mxCell id="WIyWlLk6GJQsqaUBKTNV-0" />
        <mxCell id="WIyWlLk6GJQsqaUBKTNV-1" parent="WIyWlLk6GJQsqaUBKTNV-0" />
        <mxCell id="r9KNl1x2qD91enTsNvmW-68" value="" style="whiteSpace=wrap;html=1;aspect=fixed;container=1;" parent="WIyWlLk6GJQsqaUBKTNV-1" vertex="1">
          <mxGeometry x="-520" y="200" width="1060" height="860" as="geometry" />
        </mxCell>
        <mxCell id="r9KNl1x2qD91enTsNvmW-19" value="" style="edgeStyle=orthogonalEdgeStyle;rounded=0;orthogonalLoop=1;jettySize=auto;html=1;endArrow=block;endFill=0;" parent="WIyWlLk6GJQsqaUBKTNV-1" source="r9KNl1x2qD91enTsNvmW-0" target="r9KNl1x2qD91enTsNvmW-13" edge="1">
          <mxGeometry relative="1" as="geometry" />
        </mxCell>
        <mxCell id="r9KNl1x2qD91enTsNvmW-51" value="é" style="edgeLabel;html=1;align=center;verticalAlign=middle;resizable=0;points=[];" parent="r9KNl1x2qD91enTsNvmW-19" vertex="1" connectable="0">
          <mxGeometry x="0.2039" y="-2" relative="1" as="geometry">
            <mxPoint as="offset" />
          </mxGeometry>
        </mxCell>
        <mxCell id="r9KNl1x2qD91enTsNvmW-56" value="(1..1)" style="edgeLabel;html=1;align=center;verticalAlign=middle;resizable=0;points=[];" parent="r9KNl1x2qD91enTsNvmW-19" vertex="1" connectable="0">
          <mxGeometry x="-0.9038" y="2" relative="1" as="geometry">
            <mxPoint as="offset" />
          </mxGeometry>
        </mxCell>
        <mxCell id="r9KNl1x2qD91enTsNvmW-57" value="(1..1)" style="edgeLabel;html=1;align=center;verticalAlign=middle;resizable=0;points=[];" parent="r9KNl1x2qD91enTsNvmW-19" vertex="1" connectable="0">
          <mxGeometry x="0.8313" y="2" relative="1" as="geometry">
            <mxPoint as="offset" />
          </mxGeometry>
        </mxCell>
        <mxCell id="r9KNl1x2qD91enTsNvmW-70" value="Atua" style="edgeLabel;html=1;align=center;verticalAlign=middle;resizable=0;points=[];strokeColor=default;fontFamily=Helvetica;fontSize=12;fontColor=default;fillColor=default;" parent="r9KNl1x2qD91enTsNvmW-19" vertex="1" connectable="0">
          <mxGeometry x="0.2164" y="4" relative="1" as="geometry">
            <mxPoint as="offset" />
          </mxGeometry>
        </mxCell>
        <mxCell id="r9KNl1x2qD91enTsNvmW-31" value="" style="edgeStyle=orthogonalEdgeStyle;rounded=0;orthogonalLoop=1;jettySize=auto;html=1;endArrow=block;endFill=0;" parent="WIyWlLk6GJQsqaUBKTNV-1" source="r9KNl1x2qD91enTsNvmW-0" target="r9KNl1x2qD91enTsNvmW-25" edge="1">
          <mxGeometry relative="1" as="geometry" />
        </mxCell>
        <mxCell id="r9KNl1x2qD91enTsNvmW-49" value="é" style="edgeLabel;html=1;align=center;verticalAlign=middle;resizable=0;points=[];" parent="r9KNl1x2qD91enTsNvmW-31" vertex="1" connectable="0">
          <mxGeometry x="0.1316" y="-3" relative="1" as="geometry">
            <mxPoint as="offset" />
          </mxGeometry>
        </mxCell>
        <mxCell id="r9KNl1x2qD91enTsNvmW-54" value="(1..1)" style="edgeLabel;html=1;align=center;verticalAlign=middle;resizable=0;points=[];" parent="r9KNl1x2qD91enTsNvmW-31" vertex="1" connectable="0">
          <mxGeometry x="-0.8824" y="-2" relative="1" as="geometry">
            <mxPoint as="offset" />
          </mxGeometry>
        </mxCell>
        <mxCell id="r9KNl1x2qD91enTsNvmW-55" value="(1..*)" style="edgeLabel;html=1;align=center;verticalAlign=middle;resizable=0;points=[];" parent="r9KNl1x2qD91enTsNvmW-31" vertex="1" connectable="0">
          <mxGeometry x="0.8901" y="2" relative="1" as="geometry">
            <mxPoint as="offset" />
          </mxGeometry>
        </mxCell>
        <mxCell id="r9KNl1x2qD91enTsNvmW-69" value="Atua" style="edgeLabel;html=1;align=center;verticalAlign=middle;resizable=0;points=[];strokeColor=default;fontFamily=Helvetica;fontSize=12;fontColor=default;fillColor=default;" parent="r9KNl1x2qD91enTsNvmW-31" vertex="1" connectable="0">
          <mxGeometry x="0.1423" y="1" relative="1" as="geometry">
            <mxPoint as="offset" />
          </mxGeometry>
        </mxCell>
        <mxCell id="r9KNl1x2qD91enTsNvmW-0" value="Colaborador" style="swimlane;fontStyle=1;align=center;verticalAlign=top;childLayout=stackLayout;horizontal=1;startSize=26;horizontalStack=0;resizeParent=1;resizeParentMax=0;resizeLast=0;collapsible=1;marginBottom=0;whiteSpace=wrap;html=1;" parent="WIyWlLk6GJQsqaUBKTNV-1" vertex="1">
          <mxGeometry x="-80" y="350" width="240" height="216" as="geometry" />
        </mxCell>
        <mxCell id="r9KNl1x2qD91enTsNvmW-1" value="- nome: string" style="text;strokeColor=none;fillColor=none;align=left;verticalAlign=top;spacingLeft=4;spacingRight=4;overflow=hidden;rotatable=0;points=[[0,0.5],[1,0.5]];portConstraint=eastwest;whiteSpace=wrap;html=1;" parent="r9KNl1x2qD91enTsNvmW-0" vertex="1">
          <mxGeometry y="26" width="240" height="24" as="geometry" />
        </mxCell>
        <mxCell id="r9KNl1x2qD91enTsNvmW-4" value="- sobrenome: string" style="text;strokeColor=none;fillColor=none;align=left;verticalAlign=top;spacingLeft=4;spacingRight=4;overflow=hidden;rotatable=0;points=[[0,0.5],[1,0.5]];portConstraint=eastwest;whiteSpace=wrap;html=1;" parent="r9KNl1x2qD91enTsNvmW-0" vertex="1">
          <mxGeometry y="50" width="240" height="18" as="geometry" />
        </mxCell>
        <mxCell id="r9KNl1x2qD91enTsNvmW-5" value="- endereço: string" style="text;strokeColor=none;fillColor=none;align=left;verticalAlign=top;spacingLeft=4;spacingRight=4;overflow=hidden;rotatable=0;points=[[0,0.5],[1,0.5]];portConstraint=eastwest;whiteSpace=wrap;html=1;" parent="r9KNl1x2qD91enTsNvmW-0" vertex="1">
          <mxGeometry y="68" width="240" height="22" as="geometry" />
        </mxCell>
        <mxCell id="r9KNl1x2qD91enTsNvmW-32" value="- formação: string" style="text;strokeColor=none;fillColor=none;align=left;verticalAlign=top;spacingLeft=4;spacingRight=4;overflow=hidden;rotatable=0;points=[[0,0.5],[1,0.5]];portConstraint=eastwest;whiteSpace=wrap;html=1;" parent="r9KNl1x2qD91enTsNvmW-0" vertex="1">
          <mxGeometry y="90" width="240" height="16" as="geometry" />
        </mxCell>
        <mxCell id="r9KNl1x2qD91enTsNvmW-59" value="- email: string" style="text;strokeColor=none;fillColor=none;align=left;verticalAlign=top;spacingLeft=4;spacingRight=4;overflow=hidden;rotatable=0;points=[[0,0.5],[1,0.5]];portConstraint=eastwest;whiteSpace=wrap;html=1;" parent="r9KNl1x2qD91enTsNvmW-0" vertex="1">
          <mxGeometry y="106" width="240" height="20" as="geometry" />
        </mxCell>
        <mxCell id="r9KNl1x2qD91enTsNvmW-61" value="- telefone: string" style="text;strokeColor=none;fillColor=none;align=left;verticalAlign=top;spacingLeft=4;spacingRight=4;overflow=hidden;rotatable=0;points=[[0,0.5],[1,0.5]];portConstraint=eastwest;whiteSpace=wrap;html=1;" parent="r9KNl1x2qD91enTsNvmW-0" vertex="1">
          <mxGeometry y="126" width="240" height="30" as="geometry" />
        </mxCell>
        <mxCell id="r9KNl1x2qD91enTsNvmW-2" value="" style="line;strokeWidth=1;fillColor=none;align=left;verticalAlign=middle;spacingTop=-1;spacingLeft=3;spacingRight=3;rotatable=0;labelPosition=right;points=[];portConstraint=eastwest;strokeColor=inherit;" parent="r9KNl1x2qD91enTsNvmW-0" vertex="1">
          <mxGeometry y="156" width="240" height="8" as="geometry" />
        </mxCell>
        <mxCell id="r9KNl1x2qD91enTsNvmW-3" value="+ enviarEmail(txt): string" style="text;strokeColor=none;fillColor=none;align=left;verticalAlign=top;spacingLeft=4;spacingRight=4;overflow=hidden;rotatable=0;points=[[0,0.5],[1,0.5]];portConstraint=eastwest;whiteSpace=wrap;html=1;" parent="r9KNl1x2qD91enTsNvmW-0" vertex="1">
          <mxGeometry y="164" width="240" height="26" as="geometry" />
        </mxCell>
        <mxCell id="r9KNl1x2qD91enTsNvmW-44" value="+ gerarRelatorio(): string" style="text;strokeColor=none;fillColor=none;align=left;verticalAlign=top;spacingLeft=4;spacingRight=4;overflow=hidden;rotatable=0;points=[[0,0.5],[1,0.5]];portConstraint=eastwest;whiteSpace=wrap;html=1;" parent="r9KNl1x2qD91enTsNvmW-0" vertex="1">
          <mxGeometry y="190" width="240" height="26" as="geometry" />
        </mxCell>
        <mxCell id="r9KNl1x2qD91enTsNvmW-13" value="Economista" style="swimlane;fontStyle=1;align=center;verticalAlign=top;childLayout=stackLayout;horizontal=1;startSize=26;horizontalStack=0;resizeParent=1;resizeParentMax=0;resizeLast=0;collapsible=1;marginBottom=0;whiteSpace=wrap;html=1;" parent="WIyWlLk6GJQsqaUBKTNV-1" vertex="1">
          <mxGeometry x="-390" y="657" width="260" height="148" as="geometry" />
        </mxCell>
        <mxCell id="r9KNl1x2qD91enTsNvmW-15" value="- AnoExperiencia: string" style="text;strokeColor=none;fillColor=none;align=left;verticalAlign=top;spacingLeft=4;spacingRight=4;overflow=hidden;rotatable=0;points=[[0,0.5],[1,0.5]];portConstraint=eastwest;whiteSpace=wrap;html=1;" parent="r9KNl1x2qD91enTsNvmW-13" vertex="1">
          <mxGeometry y="26" width="260" height="20" as="geometry" />
        </mxCell>
        <mxCell id="r9KNl1x2qD91enTsNvmW-17" value="" style="line;strokeWidth=1;fillColor=none;align=left;verticalAlign=middle;spacingTop=-1;spacingLeft=3;spacingRight=3;rotatable=0;labelPosition=right;points=[];portConstraint=eastwest;strokeColor=inherit;" parent="r9KNl1x2qD91enTsNvmW-13" vertex="1">
          <mxGeometry y="46" width="260" height="8" as="geometry" />
        </mxCell>
        <mxCell id="r9KNl1x2qD91enTsNvmW-18" value="+ AnalisarMercado(dados): string" style="text;strokeColor=none;fillColor=none;align=left;verticalAlign=top;spacingLeft=4;spacingRight=4;overflow=hidden;rotatable=0;points=[[0,0.5],[1,0.5]];portConstraint=eastwest;whiteSpace=wrap;html=1;" parent="r9KNl1x2qD91enTsNvmW-13" vertex="1">
          <mxGeometry y="54" width="260" height="24" as="geometry" />
        </mxCell>
        <mxCell id="r9KNl1x2qD91enTsNvmW-20" value="+ FazerPrevisãoEconomica(dados): string" style="text;strokeColor=none;fillColor=none;align=left;verticalAlign=top;spacingLeft=4;spacingRight=4;overflow=hidden;rotatable=0;points=[[0,0.5],[1,0.5]];portConstraint=eastwest;whiteSpace=wrap;html=1;" parent="r9KNl1x2qD91enTsNvmW-13" vertex="1">
          <mxGeometry y="78" width="260" height="20" as="geometry" />
        </mxCell>
        <mxCell id="r9KNl1x2qD91enTsNvmW-23" value="+ OrdenarAnalista(): string" style="text;strokeColor=none;fillColor=none;align=left;verticalAlign=top;spacingLeft=4;spacingRight=4;overflow=hidden;rotatable=0;points=[[0,0.5],[1,0.5]];portConstraint=eastwest;whiteSpace=wrap;html=1;" parent="r9KNl1x2qD91enTsNvmW-13" vertex="1">
          <mxGeometry y="98" width="260" height="22" as="geometry" />
        </mxCell>
        <mxCell id="r9KNl1x2qD91enTsNvmW-45" value="+ VisualizarDados(): string" style="text;strokeColor=none;fillColor=none;align=left;verticalAlign=top;spacingLeft=4;spacingRight=4;overflow=hidden;rotatable=0;points=[[0,0.5],[1,0.5]];portConstraint=eastwest;whiteSpace=wrap;html=1;" parent="r9KNl1x2qD91enTsNvmW-13" vertex="1">
          <mxGeometry y="120" width="260" height="28" as="geometry" />
        </mxCell>
        <mxCell id="r9KNl1x2qD91enTsNvmW-25" value="Analista de dados" style="swimlane;fontStyle=1;align=center;verticalAlign=top;childLayout=stackLayout;horizontal=1;startSize=26;horizontalStack=0;resizeParent=1;resizeParentMax=0;resizeLast=0;collapsible=1;marginBottom=0;whiteSpace=wrap;html=1;" parent="WIyWlLk6GJQsqaUBKTNV-1" vertex="1">
          <mxGeometry x="180" y="657" width="270" height="192" as="geometry" />
        </mxCell>
        <mxCell id="r9KNl1x2qD91enTsNvmW-28" value="- FerramentaConhecida: string" style="text;strokeColor=none;fillColor=none;align=left;verticalAlign=top;spacingLeft=4;spacingRight=4;overflow=hidden;rotatable=0;points=[[0,0.5],[1,0.5]];portConstraint=eastwest;whiteSpace=wrap;html=1;" parent="r9KNl1x2qD91enTsNvmW-25" vertex="1">
          <mxGeometry y="26" width="270" height="24" as="geometry" />
        </mxCell>
        <mxCell id="r9KNl1x2qD91enTsNvmW-38" value="- AreaEspecialização: string" style="text;strokeColor=none;fillColor=none;align=left;verticalAlign=top;spacingLeft=4;spacingRight=4;overflow=hidden;rotatable=0;points=[[0,0.5],[1,0.5]];portConstraint=eastwest;whiteSpace=wrap;html=1;" parent="r9KNl1x2qD91enTsNvmW-25" vertex="1">
          <mxGeometry y="50" width="270" height="26" as="geometry" />
        </mxCell>
        <mxCell id="r9KNl1x2qD91enTsNvmW-39" value="+ Certificação: string" style="text;strokeColor=none;fillColor=none;align=left;verticalAlign=top;spacingLeft=4;spacingRight=4;overflow=hidden;rotatable=0;points=[[0,0.5],[1,0.5]];portConstraint=eastwest;whiteSpace=wrap;html=1;" parent="r9KNl1x2qD91enTsNvmW-25" vertex="1">
          <mxGeometry y="76" width="270" height="22" as="geometry" />
        </mxCell>
        <mxCell id="r9KNl1x2qD91enTsNvmW-29" value="" style="line;strokeWidth=1;fillColor=none;align=left;verticalAlign=middle;spacingTop=-1;spacingLeft=3;spacingRight=3;rotatable=0;labelPosition=right;points=[];portConstraint=eastwest;strokeColor=inherit;" parent="r9KNl1x2qD91enTsNvmW-25" vertex="1">
          <mxGeometry y="98" width="270" height="8" as="geometry" />
        </mxCell>
        <mxCell id="r9KNl1x2qD91enTsNvmW-30" value="+ analisarConjuntoDeDados(ConjuntoDados): string" style="text;strokeColor=none;fillColor=none;align=left;verticalAlign=top;spacingLeft=4;spacingRight=4;overflow=hidden;rotatable=0;points=[[0,0.5],[1,0.5]];portConstraint=eastwest;whiteSpace=wrap;html=1;" parent="r9KNl1x2qD91enTsNvmW-25" vertex="1">
          <mxGeometry y="106" width="270" height="20" as="geometry" />
        </mxCell>
        <mxCell id="r9KNl1x2qD91enTsNvmW-40" value="+ CriarModeloPrevisão(ConjuntoDados): string" style="text;strokeColor=none;fillColor=none;align=left;verticalAlign=top;spacingLeft=4;spacingRight=4;overflow=hidden;rotatable=0;points=[[0,0.5],[1,0.5]];portConstraint=eastwest;whiteSpace=wrap;html=1;" parent="r9KNl1x2qD91enTsNvmW-25" vertex="1">
          <mxGeometry y="126" width="270" height="20" as="geometry" />
        </mxCell>
        <mxCell id="r9KNl1x2qD91enTsNvmW-41" value="+ VisualizarDados(ConjuntoDados): string" style="text;strokeColor=none;fillColor=none;align=left;verticalAlign=top;spacingLeft=4;spacingRight=4;overflow=hidden;rotatable=0;points=[[0,0.5],[1,0.5]];portConstraint=eastwest;whiteSpace=wrap;html=1;" parent="r9KNl1x2qD91enTsNvmW-25" vertex="1">
          <mxGeometry y="146" width="270" height="20" as="geometry" />
        </mxCell>
        <mxCell id="r9KNl1x2qD91enTsNvmW-42" value="+ LimparDados(ConjuntoDados): string" style="text;strokeColor=none;fillColor=none;align=left;verticalAlign=top;spacingLeft=4;spacingRight=4;overflow=hidden;rotatable=0;points=[[0,0.5],[1,0.5]];portConstraint=eastwest;whiteSpace=wrap;html=1;" parent="r9KNl1x2qD91enTsNvmW-25" vertex="1">
          <mxGeometry y="166" width="270" height="26" as="geometry" />
        </mxCell>
        <mxCell id="r9KNl1x2qD91enTsNvmW-48" value="" style="edgeStyle=orthogonalEdgeStyle;rounded=0;orthogonalLoop=1;jettySize=auto;html=1;entryX=0.002;entryY=0.08;entryDx=0;entryDy=0;entryPerimeter=0;endArrow=classicThin;endFill=1;dashed=1;" parent="WIyWlLk6GJQsqaUBKTNV-1" source="r9KNl1x2qD91enTsNvmW-20" target="r9KNl1x2qD91enTsNvmW-25" edge="1">
          <mxGeometry relative="1" as="geometry">
            <mxPoint as="offset" />
          </mxGeometry>
        </mxCell>
        <mxCell id="r9KNl1x2qD91enTsNvmW-52" value="(1..1)" style="edgeLabel;html=1;align=center;verticalAlign=middle;resizable=0;points=[];" parent="r9KNl1x2qD91enTsNvmW-48" vertex="1" connectable="0">
          <mxGeometry x="-0.9247" y="2" relative="1" as="geometry">
            <mxPoint as="offset" />
          </mxGeometry>
        </mxCell>
        <mxCell id="r9KNl1x2qD91enTsNvmW-53" value="(1..*)" style="edgeLabel;html=1;align=center;verticalAlign=middle;resizable=0;points=[];" parent="r9KNl1x2qD91enTsNvmW-48" vertex="1" connectable="0">
          <mxGeometry x="0.916" y="1" relative="1" as="geometry">
            <mxPoint as="offset" />
          </mxGeometry>
        </mxCell>
        <mxCell id="r9KNl1x2qD91enTsNvmW-58" value="Ordena" style="edgeLabel;html=1;align=center;verticalAlign=middle;resizable=0;points=[];" parent="r9KNl1x2qD91enTsNvmW-48" vertex="1" connectable="0">
          <mxGeometry x="0.0061" relative="1" as="geometry">
            <mxPoint as="offset" />
          </mxGeometry>
        </mxCell>
      </root>
    </mxGraphModel>
  </diagram>
  <diagram id="LhsJCpaVsZitJilEmU2f" name="Caso de uso">
    <mxGraphModel dx="1594" dy="932" grid="1" gridSize="10" guides="1" tooltips="1" connect="1" arrows="1" fold="1" page="1" pageScale="1" pageWidth="827" pageHeight="1169" math="0" shadow="0">
      <root>
        <mxCell id="0" />
        <mxCell id="1" parent="0" />
        <mxCell id="n5kllZrn_4BzJFhkrztp-26" value="Sistema Fecomercio" style="shape=umlFrame;whiteSpace=wrap;html=1;pointerEvents=0;align=center;verticalAlign=middle;fontFamily=Helvetica;fontSize=12;gradientColor=none;swimlaneFillColor=default;width=130;height=30;direction=east;" parent="1" vertex="1">
          <mxGeometry x="150" y="180" width="470" height="640" as="geometry" />
        </mxCell>
        <mxCell id="n5kllZrn_4BzJFhkrztp-30" style="edgeStyle=orthogonalEdgeStyle;rounded=0;orthogonalLoop=1;jettySize=auto;html=1;fontFamily=Helvetica;fontSize=12;fontColor=default;endArrow=none;endFill=0;" parent="1" target="n5kllZrn_4BzJFhkrztp-29" edge="1">
          <mxGeometry relative="1" as="geometry">
            <mxPoint x="110" y="725" as="sourcePoint" />
          </mxGeometry>
        </mxCell>
        <mxCell id="n5kllZrn_4BzJFhkrztp-55" value="PowerBi" style="edgeLabel;html=1;align=center;verticalAlign=middle;resizable=0;points=[];strokeColor=default;fontFamily=Helvetica;fontSize=12;fontColor=default;fillColor=default;" parent="n5kllZrn_4BzJFhkrztp-30" vertex="1" connectable="0">
          <mxGeometry x="0.4202" y="3" relative="1" as="geometry">
            <mxPoint x="-17" y="3" as="offset" />
          </mxGeometry>
        </mxCell>
        <mxCell id="n5kllZrn_4BzJFhkrztp-24" value="Economista" style="shape=umlActor;verticalLabelPosition=bottom;verticalAlign=top;html=1;align=center;fontFamily=Helvetica;fontSize=12;" parent="1" vertex="1">
          <mxGeometry x="70" y="695" width="30" height="60" as="geometry" />
        </mxCell>
        <mxCell id="n5kllZrn_4BzJFhkrztp-29" value="Visualizar Dashboard" style="ellipse;whiteSpace=wrap;html=1;strokeColor=default;align=center;verticalAlign=middle;fontFamily=Helvetica;fontSize=12;fontColor=default;fillColor=default;" parent="1" vertex="1">
          <mxGeometry x="200" y="680" width="130" height="90" as="geometry" />
        </mxCell>
        <mxCell id="n5kllZrn_4BzJFhkrztp-43" style="edgeStyle=orthogonalEdgeStyle;rounded=0;orthogonalLoop=1;jettySize=auto;html=1;fontFamily=Helvetica;fontSize=12;fontColor=default;endArrow=none;endFill=0;" parent="1" target="n5kllZrn_4BzJFhkrztp-36" edge="1">
          <mxGeometry relative="1" as="geometry">
            <mxPoint x="110" y="280" as="sourcePoint" />
          </mxGeometry>
        </mxCell>
        <mxCell id="n5kllZrn_4BzJFhkrztp-61" style="edgeStyle=orthogonalEdgeStyle;rounded=0;orthogonalLoop=1;jettySize=auto;html=1;fontFamily=Helvetica;fontSize=12;fontColor=default;endArrow=none;endFill=0;" parent="1" target="n5kllZrn_4BzJFhkrztp-29" edge="1">
          <mxGeometry relative="1" as="geometry">
            <mxPoint x="85" y="340" as="sourcePoint" />
            <Array as="points">
              <mxPoint x="85" y="620" />
              <mxPoint x="265" y="620" />
            </Array>
          </mxGeometry>
        </mxCell>
        <mxCell id="n5kllZrn_4BzJFhkrztp-70" value="PowerBi" style="edgeLabel;html=1;align=center;verticalAlign=middle;resizable=0;points=[];strokeColor=default;fontFamily=Helvetica;fontSize=12;fontColor=default;fillColor=default;" parent="n5kllZrn_4BzJFhkrztp-61" vertex="1" connectable="0">
          <mxGeometry x="0.4391" y="2" relative="1" as="geometry">
            <mxPoint as="offset" />
          </mxGeometry>
        </mxCell>
        <mxCell id="n5kllZrn_4BzJFhkrztp-31" value="Analista" style="shape=umlActor;verticalLabelPosition=bottom;verticalAlign=top;html=1;outlineConnect=0;strokeColor=default;align=center;fontFamily=Helvetica;fontSize=12;fontColor=default;fillColor=default;" parent="1" vertex="1">
          <mxGeometry x="70" y="250" width="30" height="60" as="geometry" />
        </mxCell>
        <mxCell id="n5kllZrn_4BzJFhkrztp-34" style="edgeStyle=orthogonalEdgeStyle;rounded=0;orthogonalLoop=1;jettySize=auto;html=1;fontFamily=Helvetica;fontSize=12;fontColor=default;endArrow=none;endFill=0;" parent="1" target="n5kllZrn_4BzJFhkrztp-29" edge="1">
          <mxGeometry relative="1" as="geometry">
            <mxPoint x="120" y="850" as="sourcePoint" />
          </mxGeometry>
        </mxCell>
        <mxCell id="n5kllZrn_4BzJFhkrztp-54" value="PowerBi" style="edgeLabel;html=1;align=center;verticalAlign=middle;resizable=0;points=[];strokeColor=default;fontFamily=Helvetica;fontSize=12;fontColor=default;fillColor=default;" parent="n5kllZrn_4BzJFhkrztp-34" vertex="1" connectable="0">
          <mxGeometry x="-0.1833" y="3" relative="1" as="geometry">
            <mxPoint x="-52" y="3" as="offset" />
          </mxGeometry>
        </mxCell>
        <mxCell id="n5kllZrn_4BzJFhkrztp-32" value="População" style="shape=umlActor;verticalLabelPosition=bottom;verticalAlign=top;html=1;outlineConnect=0;strokeColor=default;align=center;fontFamily=Helvetica;fontSize=12;fontColor=default;fillColor=default;" parent="1" vertex="1">
          <mxGeometry x="70" y="820" width="30" height="60" as="geometry" />
        </mxCell>
        <mxCell id="n5kllZrn_4BzJFhkrztp-41" value="" style="edgeStyle=orthogonalEdgeStyle;rounded=0;orthogonalLoop=1;jettySize=auto;html=1;fontFamily=Helvetica;fontSize=12;fontColor=default;endArrow=classic;endFill=1;" parent="1" source="n5kllZrn_4BzJFhkrztp-36" target="n5kllZrn_4BzJFhkrztp-37" edge="1">
          <mxGeometry relative="1" as="geometry" />
        </mxCell>
        <mxCell id="n5kllZrn_4BzJFhkrztp-45" value="Includes" style="edgeLabel;html=1;align=center;verticalAlign=middle;resizable=0;points=[];strokeColor=default;fontFamily=Helvetica;fontSize=12;fontColor=default;fillColor=default;" parent="n5kllZrn_4BzJFhkrztp-41" vertex="1" connectable="0">
          <mxGeometry x="-0.2962" y="1" relative="1" as="geometry">
            <mxPoint as="offset" />
          </mxGeometry>
        </mxCell>
        <mxCell id="n5kllZrn_4BzJFhkrztp-36" value="Resgatar dados da&lt;div&gt;&amp;nbsp;API&lt;/div&gt;" style="ellipse;whiteSpace=wrap;html=1;strokeColor=default;align=center;verticalAlign=middle;fontFamily=Helvetica;fontSize=12;fontColor=default;fillColor=default;" parent="1" vertex="1">
          <mxGeometry x="200" y="235" width="130" height="90" as="geometry" />
        </mxCell>
        <mxCell id="n5kllZrn_4BzJFhkrztp-42" value="" style="edgeStyle=orthogonalEdgeStyle;rounded=0;orthogonalLoop=1;jettySize=auto;html=1;fontFamily=Helvetica;fontSize=12;fontColor=default;endArrow=classic;endFill=1;" parent="1" source="n5kllZrn_4BzJFhkrztp-37" target="n5kllZrn_4BzJFhkrztp-40" edge="1">
          <mxGeometry relative="1" as="geometry" />
        </mxCell>
        <mxCell id="n5kllZrn_4BzJFhkrztp-46" value="Includes" style="edgeLabel;html=1;align=center;verticalAlign=middle;resizable=0;points=[];strokeColor=default;fontFamily=Helvetica;fontSize=12;fontColor=default;fillColor=default;" parent="n5kllZrn_4BzJFhkrztp-42" vertex="1" connectable="0">
          <mxGeometry x="-0.2577" y="3" relative="1" as="geometry">
            <mxPoint y="-1" as="offset" />
          </mxGeometry>
        </mxCell>
        <mxCell id="n5kllZrn_4BzJFhkrztp-57" value="e" style="edgeStyle=orthogonalEdgeStyle;rounded=0;orthogonalLoop=1;jettySize=auto;html=1;exitX=1;exitY=0.5;exitDx=0;exitDy=0;entryX=0;entryY=0.5;entryDx=0;entryDy=0;fontFamily=Helvetica;fontSize=12;fontColor=default;startArrow=classic;startFill=1;endArrow=none;endFill=0;" parent="1" source="n5kllZrn_4BzJFhkrztp-37" target="n5kllZrn_4BzJFhkrztp-56" edge="1">
          <mxGeometry relative="1" as="geometry" />
        </mxCell>
        <mxCell id="n5kllZrn_4BzJFhkrztp-60" value="Extend" style="edgeLabel;html=1;align=center;verticalAlign=middle;resizable=0;points=[];strokeColor=default;fontFamily=Helvetica;fontSize=12;fontColor=default;fillColor=default;" parent="n5kllZrn_4BzJFhkrztp-57" vertex="1" connectable="0">
          <mxGeometry x="0.3402" y="-2" relative="1" as="geometry">
            <mxPoint x="-10" y="-2" as="offset" />
          </mxGeometry>
        </mxCell>
        <mxCell id="n5kllZrn_4BzJFhkrztp-37" value="Filtrar dados" style="ellipse;whiteSpace=wrap;html=1;strokeColor=default;align=center;verticalAlign=middle;fontFamily=Helvetica;fontSize=12;fontColor=default;fillColor=default;" parent="1" vertex="1">
          <mxGeometry x="200" y="365" width="130" height="90" as="geometry" />
        </mxCell>
        <mxCell id="n5kllZrn_4BzJFhkrztp-66" style="edgeStyle=orthogonalEdgeStyle;rounded=0;orthogonalLoop=1;jettySize=auto;html=1;exitX=1;exitY=1;exitDx=0;exitDy=0;entryX=1;entryY=0;entryDx=0;entryDy=0;fontFamily=Helvetica;fontSize=12;fontColor=default;dashed=1;" parent="1" source="n5kllZrn_4BzJFhkrztp-40" target="n5kllZrn_4BzJFhkrztp-29" edge="1">
          <mxGeometry relative="1" as="geometry" />
        </mxCell>
        <mxCell id="n5kllZrn_4BzJFhkrztp-40" value="Criar Dashboard" style="ellipse;whiteSpace=wrap;html=1;strokeColor=default;align=center;verticalAlign=middle;fontFamily=Helvetica;fontSize=12;fontColor=default;fillColor=default;" parent="1" vertex="1">
          <mxGeometry x="200" y="495" width="130" height="90" as="geometry" />
        </mxCell>
        <mxCell id="n5kllZrn_4BzJFhkrztp-68" style="edgeStyle=orthogonalEdgeStyle;rounded=0;orthogonalLoop=1;jettySize=auto;html=1;exitX=0;exitY=0;exitDx=15;exitDy=15;exitPerimeter=0;fontFamily=Helvetica;fontSize=12;fontColor=default;endArrow=none;endFill=0;dashed=1;dashPattern=8 8;" parent="1" source="n5kllZrn_4BzJFhkrztp-53" edge="1">
          <mxGeometry relative="1" as="geometry">
            <mxPoint x="310" y="625" as="targetPoint" />
            <Array as="points">
              <mxPoint x="310" y="625" />
            </Array>
          </mxGeometry>
        </mxCell>
        <mxCell id="n5kllZrn_4BzJFhkrztp-69" value="Include" style="edgeLabel;html=1;align=center;verticalAlign=middle;resizable=0;points=[];strokeColor=default;fontFamily=Helvetica;fontSize=12;fontColor=default;fillColor=default;" parent="n5kllZrn_4BzJFhkrztp-68" vertex="1" connectable="0">
          <mxGeometry x="0.9966" y="-3" relative="1" as="geometry">
            <mxPoint y="-3" as="offset" />
          </mxGeometry>
        </mxCell>
        <mxCell id="n5kllZrn_4BzJFhkrztp-53" value="Visualizar Dashboard só é possível se todos os passos do analista forem feito." style="shape=card;whiteSpace=wrap;html=1;strokeColor=#001DBC;align=center;verticalAlign=middle;fontFamily=Helvetica;fontSize=12;fillColor=#0050ef;fontColor=#ffffff;" parent="1" vertex="1">
          <mxGeometry x="430" y="610" width="168" height="175" as="geometry" />
        </mxCell>
        <mxCell id="n5kllZrn_4BzJFhkrztp-58" style="edgeStyle=orthogonalEdgeStyle;rounded=0;orthogonalLoop=1;jettySize=auto;html=1;entryX=1;entryY=0.5;entryDx=0;entryDy=0;fontFamily=Helvetica;fontSize=12;fontColor=default;" parent="1" source="n5kllZrn_4BzJFhkrztp-56" target="n5kllZrn_4BzJFhkrztp-40" edge="1">
          <mxGeometry relative="1" as="geometry">
            <Array as="points">
              <mxPoint x="490" y="540" />
            </Array>
          </mxGeometry>
        </mxCell>
        <mxCell id="n5kllZrn_4BzJFhkrztp-59" value="Extend" style="edgeLabel;html=1;align=center;verticalAlign=middle;resizable=0;points=[];strokeColor=default;fontFamily=Helvetica;fontSize=12;fontColor=default;fillColor=default;" parent="n5kllZrn_4BzJFhkrztp-58" vertex="1" connectable="0">
          <mxGeometry x="0.1107" y="-3" relative="1" as="geometry">
            <mxPoint as="offset" />
          </mxGeometry>
        </mxCell>
        <mxCell id="n5kllZrn_4BzJFhkrztp-56" value="Aplicação do ETL" style="ellipse;whiteSpace=wrap;html=1;strokeColor=default;align=center;verticalAlign=middle;fontFamily=Helvetica;fontSize=12;fontColor=default;fillColor=default;" parent="1" vertex="1">
          <mxGeometry x="420" y="370" width="120" height="80" as="geometry" />
        </mxCell>
      </root>
    </mxGraphModel>
  </diagram>
  <diagram id="MmIR_9fyGGM_oFDdipaQ" name="Diagrama de Sequencia">
    <mxGraphModel dx="3880" dy="466" grid="1" gridSize="10" guides="1" tooltips="1" connect="1" arrows="1" fold="1" page="0" pageScale="1" pageWidth="827" pageHeight="1169" math="0" shadow="0">
      <root>
        <mxCell id="0" />
        <mxCell id="1" parent="0" />
        <mxCell id="w0TIbolnLjeJ1-x-DkHI-64" value="Analista" style="shape=umlLifeline;perimeter=lifelinePerimeter;whiteSpace=wrap;html=1;container=0;dropTarget=0;collapsible=0;recursiveResize=0;outlineConnect=0;portConstraint=eastwest;newEdgeStyle={&quot;edgeStyle&quot;:&quot;elbowEdgeStyle&quot;,&quot;elbow&quot;:&quot;vertical&quot;,&quot;curved&quot;:0,&quot;rounded&quot;:0};" vertex="1" parent="1">
          <mxGeometry x="-2080" y="670" width="100" height="380" as="geometry" />
        </mxCell>
        <mxCell id="w0TIbolnLjeJ1-x-DkHI-65" value="" style="html=1;points=[];perimeter=orthogonalPerimeter;outlineConnect=0;targetShapes=umlLifeline;portConstraint=eastwest;newEdgeStyle={&quot;edgeStyle&quot;:&quot;elbowEdgeStyle&quot;,&quot;elbow&quot;:&quot;vertical&quot;,&quot;curved&quot;:0,&quot;rounded&quot;:0};" vertex="1" parent="w0TIbolnLjeJ1-x-DkHI-64">
          <mxGeometry x="45" y="70" width="10" height="310" as="geometry" />
        </mxCell>
        <mxCell id="w0TIbolnLjeJ1-x-DkHI-66" value="Inicia" style="html=1;verticalAlign=bottom;startArrow=oval;endArrow=block;startSize=8;edgeStyle=elbowEdgeStyle;elbow=vertical;curved=0;rounded=0;" edge="1" parent="w0TIbolnLjeJ1-x-DkHI-64" target="w0TIbolnLjeJ1-x-DkHI-65">
          <mxGeometry relative="1" as="geometry">
            <mxPoint x="-15" y="70" as="sourcePoint" />
          </mxGeometry>
        </mxCell>
        <mxCell id="w0TIbolnLjeJ1-x-DkHI-68" value="SistemaFecomercio" style="shape=umlLifeline;perimeter=lifelinePerimeter;whiteSpace=wrap;html=1;container=0;dropTarget=0;collapsible=0;recursiveResize=0;outlineConnect=0;portConstraint=eastwest;newEdgeStyle={&quot;edgeStyle&quot;:&quot;elbowEdgeStyle&quot;,&quot;elbow&quot;:&quot;vertical&quot;,&quot;curved&quot;:0,&quot;rounded&quot;:0};" vertex="1" parent="1">
          <mxGeometry x="-1890" y="670" width="110" height="490" as="geometry" />
        </mxCell>
        <mxCell id="w0TIbolnLjeJ1-x-DkHI-69" value="" style="html=1;points=[];perimeter=orthogonalPerimeter;outlineConnect=0;targetShapes=umlLifeline;portConstraint=eastwest;newEdgeStyle={&quot;edgeStyle&quot;:&quot;elbowEdgeStyle&quot;,&quot;elbow&quot;:&quot;vertical&quot;,&quot;curved&quot;:0,&quot;rounded&quot;:0};" vertex="1" parent="w0TIbolnLjeJ1-x-DkHI-68">
          <mxGeometry x="45" y="80" width="10" height="410" as="geometry" />
        </mxCell>
        <mxCell id="w0TIbolnLjeJ1-x-DkHI-70" value="RequisiçãoApi()" style="html=1;verticalAlign=bottom;endArrow=block;edgeStyle=elbowEdgeStyle;elbow=vertical;curved=0;rounded=0;" edge="1" parent="1" source="w0TIbolnLjeJ1-x-DkHI-65" target="w0TIbolnLjeJ1-x-DkHI-69">
          <mxGeometry relative="1" as="geometry">
            <mxPoint x="-1925" y="760" as="sourcePoint" />
            <Array as="points">
              <mxPoint x="-1940" y="750" />
            </Array>
          </mxGeometry>
        </mxCell>
        <mxCell id="w0TIbolnLjeJ1-x-DkHI-71" value="status_code" style="html=1;verticalAlign=bottom;endArrow=open;dashed=1;endSize=8;edgeStyle=elbowEdgeStyle;elbow=vertical;curved=0;rounded=0;" edge="1" parent="1" source="w0TIbolnLjeJ1-x-DkHI-69" target="w0TIbolnLjeJ1-x-DkHI-65">
          <mxGeometry relative="1" as="geometry">
            <mxPoint x="-1925" y="835" as="targetPoint" />
            <Array as="points">
              <mxPoint x="-1930" y="790" />
            </Array>
          </mxGeometry>
        </mxCell>
        <mxCell id="w0TIbolnLjeJ1-x-DkHI-81" value="SalvarJson()" style="html=1;verticalAlign=bottom;endArrow=classicThin;edgeStyle=elbowEdgeStyle;elbow=vertical;curved=0;rounded=0;endFill=1;startArrow=none;startFill=0;" edge="1" parent="1" source="w0TIbolnLjeJ1-x-DkHI-65" target="w0TIbolnLjeJ1-x-DkHI-69">
          <mxGeometry x="0.0044" relative="1" as="geometry">
            <mxPoint x="-2020" y="819.6" as="sourcePoint" />
            <Array as="points">
              <mxPoint x="-1930" y="840" />
            </Array>
            <mxPoint x="-1850" y="820" as="targetPoint" />
            <mxPoint as="offset" />
          </mxGeometry>
        </mxCell>
        <mxCell id="w0TIbolnLjeJ1-x-DkHI-83" value="Arquivos" style="shape=umlLifeline;perimeter=lifelinePerimeter;whiteSpace=wrap;html=1;container=0;dropTarget=0;collapsible=0;recursiveResize=0;outlineConnect=0;portConstraint=eastwest;newEdgeStyle={&quot;edgeStyle&quot;:&quot;elbowEdgeStyle&quot;,&quot;elbow&quot;:&quot;vertical&quot;,&quot;curved&quot;:0,&quot;rounded&quot;:0};" vertex="1" parent="1">
          <mxGeometry x="-1710" y="670" width="110" height="340" as="geometry" />
        </mxCell>
        <mxCell id="w0TIbolnLjeJ1-x-DkHI-84" value="" style="html=1;points=[];perimeter=orthogonalPerimeter;outlineConnect=0;targetShapes=umlLifeline;portConstraint=eastwest;newEdgeStyle={&quot;edgeStyle&quot;:&quot;elbowEdgeStyle&quot;,&quot;elbow&quot;:&quot;vertical&quot;,&quot;curved&quot;:0,&quot;rounded&quot;:0};" vertex="1" parent="w0TIbolnLjeJ1-x-DkHI-83">
          <mxGeometry x="45" y="80" width="10" height="260" as="geometry" />
        </mxCell>
        <mxCell id="w0TIbolnLjeJ1-x-DkHI-85" value="VerificarDados()" style="html=1;verticalAlign=bottom;endArrow=classic;edgeStyle=elbowEdgeStyle;elbow=vertical;curved=0;rounded=0;endFill=1;startArrow=none;startFill=0;" edge="1" parent="1" source="w0TIbolnLjeJ1-x-DkHI-69" target="w0TIbolnLjeJ1-x-DkHI-84">
          <mxGeometry x="0.0044" relative="1" as="geometry">
            <mxPoint x="-2015" y="845" as="sourcePoint" />
            <Array as="points">
              <mxPoint x="-1750" y="840" />
            </Array>
            <mxPoint x="-1835" y="845" as="targetPoint" />
            <mxPoint as="offset" />
          </mxGeometry>
        </mxCell>
        <mxCell id="w0TIbolnLjeJ1-x-DkHI-86" value="Dados: ok" style="html=1;verticalAlign=bottom;endArrow=open;dashed=1;endSize=8;edgeStyle=elbowEdgeStyle;elbow=vertical;curved=0;rounded=0;" edge="1" parent="1" source="w0TIbolnLjeJ1-x-DkHI-84" target="w0TIbolnLjeJ1-x-DkHI-68">
          <mxGeometry relative="1" as="geometry">
            <mxPoint x="-2015" y="800" as="targetPoint" />
            <Array as="points">
              <mxPoint x="-1750" y="870" />
            </Array>
            <mxPoint x="-1835" y="800" as="sourcePoint" />
          </mxGeometry>
        </mxCell>
        <mxCell id="w0TIbolnLjeJ1-x-DkHI-87" value="TransformarDados()" style="html=1;verticalAlign=bottom;endArrow=classic;edgeStyle=elbowEdgeStyle;elbow=vertical;curved=0;rounded=0;endFill=1;startArrow=none;startFill=0;" edge="1" parent="1" source="w0TIbolnLjeJ1-x-DkHI-65" target="w0TIbolnLjeJ1-x-DkHI-69">
          <mxGeometry x="0.0044" relative="1" as="geometry">
            <mxPoint x="-2020" y="910" as="sourcePoint" />
            <Array as="points">
              <mxPoint x="-1930" y="910" />
            </Array>
            <mxPoint x="-1850" y="910" as="targetPoint" />
            <mxPoint as="offset" />
          </mxGeometry>
        </mxCell>
        <mxCell id="w0TIbolnLjeJ1-x-DkHI-88" value="VerificarDados()" style="html=1;verticalAlign=bottom;endArrow=classic;edgeStyle=elbowEdgeStyle;elbow=vertical;curved=0;rounded=0;endFill=1;startArrow=none;startFill=0;" edge="1" parent="1" source="w0TIbolnLjeJ1-x-DkHI-68" target="w0TIbolnLjeJ1-x-DkHI-84">
          <mxGeometry x="0.0044" relative="1" as="geometry">
            <mxPoint x="-1825" y="850" as="sourcePoint" />
            <Array as="points">
              <mxPoint x="-1750" y="910" />
            </Array>
            <mxPoint x="-1670" y="900" as="targetPoint" />
            <mxPoint as="offset" />
          </mxGeometry>
        </mxCell>
        <mxCell id="w0TIbolnLjeJ1-x-DkHI-89" value="Dados: ok" style="html=1;verticalAlign=bottom;endArrow=open;dashed=1;endSize=8;edgeStyle=elbowEdgeStyle;elbow=vertical;curved=0;rounded=0;" edge="1" parent="1" source="w0TIbolnLjeJ1-x-DkHI-84" target="w0TIbolnLjeJ1-x-DkHI-68">
          <mxGeometry relative="1" as="geometry">
            <mxPoint x="-1825" y="880" as="targetPoint" />
            <Array as="points">
              <mxPoint x="-1750" y="940" />
            </Array>
            <mxPoint x="-1670" y="940" as="sourcePoint" />
          </mxGeometry>
        </mxCell>
        <mxCell id="w0TIbolnLjeJ1-x-DkHI-90" value="CarregarDados()" style="html=1;verticalAlign=bottom;endArrow=classic;edgeStyle=elbowEdgeStyle;elbow=vertical;curved=0;rounded=0;endFill=1;startArrow=none;startFill=0;" edge="1" parent="1" source="w0TIbolnLjeJ1-x-DkHI-65" target="w0TIbolnLjeJ1-x-DkHI-69">
          <mxGeometry x="0.0029" relative="1" as="geometry">
            <mxPoint x="-2021" y="920" as="sourcePoint" />
            <Array as="points">
              <mxPoint x="-1920" y="970" />
            </Array>
            <mxPoint x="-1840" y="920" as="targetPoint" />
            <mxPoint as="offset" />
          </mxGeometry>
        </mxCell>
        <mxCell id="w0TIbolnLjeJ1-x-DkHI-92" value="VerificarDados()" style="html=1;verticalAlign=bottom;endArrow=classic;edgeStyle=elbowEdgeStyle;elbow=vertical;curved=0;rounded=0;endFill=1;startArrow=none;startFill=0;" edge="1" parent="1" source="w0TIbolnLjeJ1-x-DkHI-68" target="w0TIbolnLjeJ1-x-DkHI-84">
          <mxGeometry x="0.0044" relative="1" as="geometry">
            <mxPoint x="-1826" y="920" as="sourcePoint" />
            <Array as="points">
              <mxPoint x="-1750" y="970" />
            </Array>
            <mxPoint x="-1655" y="920" as="targetPoint" />
            <mxPoint as="offset" />
          </mxGeometry>
        </mxCell>
        <mxCell id="w0TIbolnLjeJ1-x-DkHI-93" value="return {message, status_code}" style="html=1;verticalAlign=bottom;endArrow=open;dashed=1;endSize=8;edgeStyle=elbowEdgeStyle;elbow=vertical;curved=0;rounded=0;" edge="1" parent="1" source="w0TIbolnLjeJ1-x-DkHI-84" target="w0TIbolnLjeJ1-x-DkHI-68">
          <mxGeometry relative="1" as="geometry">
            <mxPoint x="-1825" y="950" as="targetPoint" />
            <Array as="points">
              <mxPoint x="-1740" y="1000" />
            </Array>
            <mxPoint x="-1655" y="950" as="sourcePoint" />
          </mxGeometry>
        </mxCell>
        <mxCell id="w0TIbolnLjeJ1-x-DkHI-94" value="SalvarSQLite()" style="html=1;verticalAlign=bottom;endArrow=classic;edgeStyle=elbowEdgeStyle;elbow=vertical;curved=0;rounded=0;endFill=1;startArrow=none;startFill=0;" edge="1" parent="1" source="w0TIbolnLjeJ1-x-DkHI-65" target="w0TIbolnLjeJ1-x-DkHI-69">
          <mxGeometry x="0.0029" relative="1" as="geometry">
            <mxPoint x="-2015" y="980" as="sourcePoint" />
            <Array as="points">
              <mxPoint x="-1940" y="1030" />
            </Array>
            <mxPoint x="-1835" y="980" as="targetPoint" />
            <mxPoint as="offset" />
          </mxGeometry>
        </mxCell>
        <mxCell id="w0TIbolnLjeJ1-x-DkHI-95" value="Banco" style="shape=umlLifeline;perimeter=lifelinePerimeter;whiteSpace=wrap;html=1;container=0;dropTarget=0;collapsible=0;recursiveResize=0;outlineConnect=0;portConstraint=eastwest;newEdgeStyle={&quot;edgeStyle&quot;:&quot;elbowEdgeStyle&quot;,&quot;elbow&quot;:&quot;vertical&quot;,&quot;curved&quot;:0,&quot;rounded&quot;:0};" vertex="1" parent="1">
          <mxGeometry x="-1480" y="670" width="110" height="490" as="geometry" />
        </mxCell>
        <mxCell id="w0TIbolnLjeJ1-x-DkHI-96" value="" style="html=1;points=[];perimeter=orthogonalPerimeter;outlineConnect=0;targetShapes=umlLifeline;portConstraint=eastwest;newEdgeStyle={&quot;edgeStyle&quot;:&quot;elbowEdgeStyle&quot;,&quot;elbow&quot;:&quot;vertical&quot;,&quot;curved&quot;:0,&quot;rounded&quot;:0};" vertex="1" parent="w0TIbolnLjeJ1-x-DkHI-95">
          <mxGeometry x="45" y="80" width="10" height="410" as="geometry" />
        </mxCell>
        <mxCell id="w0TIbolnLjeJ1-x-DkHI-97" value="enviaDadosBanco()" style="html=1;verticalAlign=bottom;endArrow=classic;edgeStyle=elbowEdgeStyle;elbow=vertical;curved=0;rounded=0;endFill=1;startArrow=none;startFill=0;" edge="1" parent="1" source="w0TIbolnLjeJ1-x-DkHI-69" target="w0TIbolnLjeJ1-x-DkHI-96">
          <mxGeometry x="0.0029" relative="1" as="geometry">
            <mxPoint x="-1830" y="1030" as="sourcePoint" />
            <Array as="points">
              <mxPoint x="-1680" y="1030" />
            </Array>
            <mxPoint x="-1440" y="1030" as="targetPoint" />
            <mxPoint as="offset" />
          </mxGeometry>
        </mxCell>
        <mxCell id="w0TIbolnLjeJ1-x-DkHI-98" value="return {message, status_code}" style="html=1;verticalAlign=bottom;endArrow=open;dashed=1;endSize=8;edgeStyle=elbowEdgeStyle;elbow=horizontal;curved=0;rounded=0;" edge="1" parent="1" source="w0TIbolnLjeJ1-x-DkHI-95" target="w0TIbolnLjeJ1-x-DkHI-69">
          <mxGeometry relative="1" as="geometry">
            <mxPoint x="-1826" y="1010" as="targetPoint" />
            <Array as="points">
              <mxPoint x="-1600" y="1080" />
            </Array>
            <mxPoint x="-1655" y="1010" as="sourcePoint" />
          </mxGeometry>
        </mxCell>
      </root>
    </mxGraphModel>
  </diagram>
</mxfile>
